<?xml version="1.0" encoding="UTF-8" standalone="no"?>
<!DOCTYPE svg PUBLIC "-//W3C//DTD SVG 1.1//EN" "http://www.w3.org/Graphics/SVG/1.1/DTD/svg11.dtd">
<svg width="100%" height="100%" viewBox="0 0 1039 125" version="1.1" xmlns="http://www.w3.org/2000/svg" xmlns:xlink="http://www.w3.org/1999/xlink" xml:space="preserve" xmlns:serif="http://www.serif.com/" style="fill-rule:evenodd;clip-rule:evenodd;stroke-linejoin:round;stroke-miterlimit:2;">
    <g transform="matrix(1,0,0,1,-463.3,-425.3)">
        <g id="white">
            <path d="M1050.7,425.3L988.1,549.9L1017.3,549.9L1063,454.6L1075.5,549.9L1103.4,549.9L1084.6,425.3L1050.7,425.3Z" style="fill:rgb(230,230,230);fill-rule:nonzero;"/>
            <path d="M589.5,549.9L617.1,549.9L639,425.3L611.4,425.3L589.5,549.9Z" style="fill:rgb(230,230,230);fill-rule:nonzero;"/>
            <path d="M1099.9,425.3L1118.7,549.9L1147.3,549.9L1128.4,425.3L1099.9,425.3Z" style="fill:rgb(230,230,230);fill-rule:nonzero;"/>
            <path d="M556.6,425.3L485.2,425.3L463.3,549.9L534.7,549.9C551.4,549.9 564.6,538.7 567.5,522L579.6,453.3C582.6,436.5 573.4,425.3 556.6,425.3ZM551.8,454.6L540.2,520.5C539.5,524.1 537.4,525.8 533.8,525.8L495,525.8L508.5,449.3L547.3,449.3C550.9,449.3 552.4,451.1 551.8,454.6Z" style="fill:rgb(230,230,230);fill-rule:nonzero;"/>
            <path d="M730,425.3L688.2,425.3C671.6,425.3 658.5,436.5 655.4,453.2L652.2,471.5C649.4,488.2 658.4,499.4 675,499.4L711.8,499.4C715.4,499.4 717,501.2 716.3,504.7L713.6,520.4C712.9,524 710.8,525.7 707.2,525.7L675.5,525.7C671.9,525.7 670.5,523.9 671.2,520.4L672.8,510.6L645.2,510.6L643.2,521.8C640.4,538.5 649.6,549.7 666.3,549.7L708.1,549.7C724.7,549.7 737.8,538.5 740.7,521.8L744.1,503.3C746.9,486.6 737.7,475.4 721.1,475.4L684.3,475.4C680.7,475.4 679.3,473.6 679.8,470.1L682.6,454.6C683.1,451 685.3,449.3 688.8,449.3L720.5,449.3C724.1,449.3 725.5,451.1 724.9,454.6L723.1,464.4L751,464.4L753,453.2C756,436.5 746.7,425.3 730,425.3Z" style="fill:rgb(230,230,230);fill-rule:nonzero;"/>
            <path d="M850.7,425.3L807.1,425.3C790.5,425.3 777.4,436.5 774.3,453.2L762.2,521.9C759.4,538.6 768.6,549.8 785.2,549.8L828.8,549.8C845.5,549.8 858.7,538.6 861.6,521.9L864.6,505.3L837,505.3L834.3,520.4C833.6,524 831.5,525.7 827.9,525.7L794.4,525.7C790.8,525.7 789.4,523.9 790.1,520.4L801.7,454.5C802.2,450.9 804.4,449.2 807.9,449.2L841.4,449.2C845,449.2 846.4,451 845.9,454.5L843.2,469.6L870.8,469.6L873.6,453C876.7,436.5 867.4,425.3 850.7,425.3Z" style="fill:rgb(230,230,230);fill-rule:nonzero;"/>
            <path d="M971.7,425.3L962.8,475.5L918.7,475.5L927.6,425.3L900,425.3L878.1,549.9L905.7,549.9L914.4,499.5L958.5,499.5L949.8,549.9L977.4,549.9L999.3,425.3L971.7,425.3Z" style="fill:rgb(230,230,230);fill-rule:nonzero;"/>
            <path d="M1248.8,425.3L1181,425.3L1159.1,549.9L1186.7,549.9L1194,508.4L1214.5,508.4L1226.1,549.9L1254.9,549.9L1241.9,507.7C1254.9,504.9 1264.5,494.5 1267,480.5L1271.8,453.3C1274.8,436.5 1265.6,425.3 1248.8,425.3ZM1244,454.6L1239.7,479C1239,482.6 1236.9,484.3 1233.3,484.3L1198.1,484.3L1204.3,449.2L1239.5,449.2C1243.1,449.3 1244.5,451.1 1244,454.6Z" style="fill:rgb(230,230,230);fill-rule:nonzero;"/>
            <path d="M1365.9,425.3L1322.3,425.3C1305.7,425.3 1292.6,436.5 1289.5,453.2L1277.4,521.9C1274.6,538.6 1283.8,549.8 1300.4,549.8L1326.2,549.8C1335.3,549.8 1343.5,546.4 1349.3,540.5L1351.6,549.8L1371.9,549.8L1384,480.7L1330.1,480.7L1325.8,504.7L1352.1,504.7L1349.1,521.4C1348.2,524.2 1346.3,525.7 1343,525.7L1309.5,525.7C1305.9,525.7 1304.5,523.9 1305.2,520.4L1316.8,454.5C1317.3,450.9 1319.5,449.2 1323,449.2L1356.5,449.2C1360.1,449.2 1361.5,451 1360.9,454.5L1358.8,466.1L1386.4,466.1L1388.7,453.1C1391.9,436.5 1382.7,425.3 1365.9,425.3Z" style="fill:rgb(230,230,230);fill-rule:nonzero;"/>
            <path d="M1497.8,449.3L1502.1,425.3L1415.2,425.3L1393.4,549.9L1480.2,549.9L1484.3,525.8L1425,525.8L1429.7,499.5L1480,499.5L1484.3,475.5L1433.9,475.5L1438.6,449.3L1497.8,449.3Z" style="fill:rgb(230,230,230);fill-rule:nonzero;"/>
        </g>
    </g>
</svg>
