<svg width="317" height="252" viewBox="0 0 317 252" fill="none" xmlns="http://www.w3.org/2000/svg">
<rect width="317" height="252" fill="#1A1A1A"/>
<path d="M122.964 9L5 243.797H60.0246L146.142 64.2131L169.697 243.797H222.272L186.845 9H122.964Z" fill="#0000FF"/>
<path d="M215.679 9L251.106 243.797H305L269.385 9H215.679Z" fill="#0000FF"/>
<path d="M129.964 9L12 243.797H67.0246L153.142 64.2131L176.697 243.797H229.272L193.845 9H129.964Z" fill="#FFFF00"/>
<path d="M222.679 9L258.106 243.797H312L276.385 9H222.679Z" fill="#FFFF00"/>
<path d="M125.964 9L8 243.797H63.0246L149.142 64.2131L172.697 243.797H225.272L189.845 9H125.964Z" fill="#E6E6E6"/>
<path d="M218.679 9L254.106 243.797H308L272.385 9H218.679Z" fill="#E6E6E6"/>
</svg>
